<svg xmlns="http://www.w3.org/2000/svg" width="960" height="720" viewBox="0 0 960 720" role="img" aria-label="A6'̀ E7(">
  <defs>
    <linearGradient id="bg" x1="0%" y1="0%" x2="100%" y2="100%">
      <stop offset="0%" stop-color="#f8fafc"/>
      <stop offset="100%" stop-color="#e2e8f0"/>
    </linearGradient>
    <linearGradient id="wall" x1="0%" y1="0%" x2="0%" y2="100%">
      <stop offset="0%" stop-color="#f1f5f9"/>
      <stop offset="100%" stop-color="#cbd5e1"/>
    </linearGradient>
  </defs>
  <rect width="960" height="720" fill="url(#bg)"/>
  <rect x="0" y="0" width="960" height="420" fill="url(#wall)"/>
  <rect x="80" y="80" width="280" height="200" rx="8" fill="#94a3b8" opacity="0.35"/>
  <rect x="100" y="100" width="240" height="160" rx="4" fill="#e0f2fe"/>
  <rect x="420" y="120" width="200" height="140" rx="8" fill="#fecdd3" opacity="0.55"/>
  <rect x="680" y="90" width="200" height="260" rx="10" fill="#1e3a5f"/>
  <rect x="700" y="120" width="160" height="100" rx="6" fill="#0ea5e9" opacity="0.4"/>
  <circle cx="780" cy="280" r="28" fill="#e11d48" opacity="0.8"/>
  <rect x="0" y="420" width="960" height="300" fill="#94a3b8" opacity="0.25"/>
  <rect x="120" y="460" width="320" height="140" rx="16" fill="#fff" stroke="#cbd5e1"/>
  <rect x="480" y="480" width="280" height="100" rx="12" fill="#fff" stroke="#cbd5e1"/>
  <rect x="160" y="500" width="180" height="16" rx="4" fill="#e2e8f0"/>
  <rect x="160" y="530" width="120" height="12" rx="4" fill="#f1f5f9"/>
  <text x="480" y="680" text-anchor="middle" fill="#334155" font-family="Tahoma, sans-serif" font-size="24">E7( *.55̀ BD(</text>
</svg>
