<?xml version="1.0" standalone="no"?>
<!DOCTYPE svg PUBLIC "-//W3C//DTD SVG 1.1//EN" "http://www.w3.org/Graphics/SVG/1.1/DTD/svg11.dtd">
<svg xmlns="http://www.w3.org/2000/svg">
<metadata>Copyright (C) 2020 by original authors @ fontello.com</metadata>
<defs>
<font id="paziresh" horiz-adv-x="1000" >
<font-face font-family="paziresh" font-weight="400" font-stretch="normal" units-per-em="1000" ascent="850" descent="-150" />
<missing-glyph horiz-adv-x="1000" />
<glyph glyph-name="copyright" unicode="&#xe800;" d="M500-150c-134 0-259 52-354 146-94 95-146 220-146 354s52 259 146 354c95 94 220 146 354 146s259-52 354-146c94-95 146-220 146-354s-52-259-146-354c-95-94-220-146-354-146z m0 922c-233 0-422-189-422-422s189-422 422-422 422 189 422 422-189 422-422 422z m206-628l-55 56c-83-83-218-83-301 0s-83 218 0 301 218 83 301 0l55 55c-114 113-298 113-412 0-113-114-113-298 0-412 57-56 132-85 206-85 75 0 149 29 206 85z m0 0" horiz-adv-x="1000" />

<glyph glyph-name="descending-sort" unicode="&#xe801;" d="M637-33h-603c-19 0-34-15-34-34v-33c0-19 15-34 34-34h603c18 0 33 15 33 34v33c0 19-15 34-33 34z m-603 111h539c19 0 34 15 34 34v33c0 19-15 34-34 34h-539c-19 0-34-15-34-34v-33c0-19 15-34 34-34z m0 212h476c19 0 34 15 34 33v34c0 18-15 34-34 34h-476c-19 0-34-16-34-34v-34c0-18 15-33 34-33z m0 235h413c19 0 34 15 34 34v33c0 19-15 34-34 34h-413c-19 0-34-15-34-34v-33c0-19 15-34 34-34z m0 212h350c18 0 34 15 34 33v34c0 18-16 34-34 34h-350c-19 0-34-16-34-34v-34c0-18 15-33 34-33z m1137-616l-24 24c-6 6-15 10-24 10s-17-4-24-10l-115-116v758c0 19-16 34-34 34h-34c-18 0-33-15-33-34v-758l-116 116c-6 6-15 10-24 10s-51-4-57-10l10-24c-14-13-14-34 0-47l213-214c6-6 15-10 24-10 9 0 17 4 24 10l213 214c14 13 14 34 1 47z" horiz-adv-x="1181" />

<glyph glyph-name="download" unicode="&#xe802;" d="M747 394c-5 11-16 19-28 19h-125v406c0 17-14 31-31 31h-125c-18 0-32-14-32-31v-406h-125c-12 0-23-8-28-19-5-11-3-24 5-33l219-250c5-7 14-11 23-11 9 0 18 4 24 11l218 250c8 9 10 22 5 33z m97-231v-188h-688v188h-125v-251c0-34 28-62 63-62h812c35 0 63 28 63 62v251h-125z" horiz-adv-x="1000" />

<glyph glyph-name="chat" unicode="&#xe803;" d="M498 819c-275 0-498-197-498-440 0-102 41-201 114-280 15-60-3-124-47-168-18-18-5-50 21-50 83 0 164 33 224 91 59-22 121-32 186-32 275 0 502 197 502 439s-227 440-502 440z m-230-528c-49 0-88 40-88 88 0 49 39 88 88 88 48 0 88-39 88-88 0-48-40-88-88-88z m234 0c-48 0-88 40-88 88 0 49 40 88 88 88 48 0 88-39 88-88 0-48-40-88-88-88z m234 0c-48 0-88 40-88 88 0 49 40 88 88 88 49 0 88-39 88-88 0-48-39-88-88-88z" horiz-adv-x="1000" />

<glyph glyph-name="email-(1)" unicode="&#xe804;" d="M961 281c22 0 39 17 39 39v256c0 86-70 156-156 156h-688c-86 0-156-70-156-156v-452c0-86 70-156 156-156h688c86 0 156 70 156 156 0 22-17 40-39 40-22 0-39-18-39-40 0-43-35-78-78-78h-688c-43 0-78 35-78 78v443l340-211c25-15 54-23 82-23 29 0 57 8 83 23l339 211v-247c0-22 17-39 39-39z m-420 142c-25-16-57-16-82 0l-348 216c13 9 28 15 45 15h688c17 0 33-6 45-15l-348-216z" horiz-adv-x="1000" />

<glyph glyph-name="fast-forward" unicode="&#xe805;" d="M13 311l446-447c20-20 52-20 72 0 20 20 20 52 0 72l-410 411 410 410c20 20 20 52 0 72-10 10-23 15-36 15s-26-5-36-15l-446-446c-20-20-20-52 0-72z m475 0l446-447c20-20 52-20 72 0 20 20 20 52 0 72l-410 411 410 410c20 20 20 52 0 72-10 10-23 15-36 15s-26-5-36-15l-446-446c-20-20-20-52 0-72z" horiz-adv-x="1021" />

<glyph glyph-name="bell" unicode="&#xe806;" d="M382-31c0 0-1 0-1 0 0-66 54-119 119-119s119 53 119 119c0 0 0 0 0 0h-237z m497 149l-107 156c0 48 0 166 0 196 0 132-94 242-219 267v60c0 29-24 53-53 53s-53-24-53-53v-60c-125-25-219-135-219-267 0-52 0-166 0-196l-107-156c-11-17-12-38-3-56 10-18 28-29 48-29h668c20 0 38 11 48 29 9 18 8 39-3 56z" horiz-adv-x="1000" />

<glyph glyph-name="folder-(1)" unicode="&#xe807;" d="M981 546c-17 21-41 32-68 32h-39c-7 35-42 70-84 70h-422c-29 0-53 24-53 53 0 48-39 87-87 87h-140c-49 0-88-39-88-87v-701c0-49 39-88 88-88h6c3 0 7 0 11 0h699c41 0 75 28 84 68l110 494c6 25 0 51-17 72z m-946 155c0 28 24 52 53 52h140c29 0 52-24 52-52 0-49 40-88 88-88h422c22 0 41-18 48-35h-626c-40 0-75-28-84-68l-93-417v608z m927-220l-110-494c-5-23-25-40-48-40h-699c-16 0-31 8-40 20-10 12-14 28-11 44l110 492c5 23 25 40 48 40h701c16 0 30-7 39-19 10-12 14-28 10-43z" horiz-adv-x="1000" />

<glyph glyph-name="funnel" unicode="&#xe808;" d="M982 715c0 89-243 135-482 135s-482-46-482-135c0-20 13-38 35-53l331-454v-338l2-20h19l9 0 202 202v156l331 454c22 15 35 33 35 53z m-482 97c271 0 443-58 443-97s-172-96-443-96-443 57-443 96 173 97 443 97z" horiz-adv-x="1000" />

<glyph glyph-name="instagram" unicode="&#xe809;" d="M510-150c-3 0-7 0-10 0-78 0-151 2-221 6-65 4-124 26-171 65-45 37-76 87-92 148-13 54-14 106-15 157 0 37-1 80-1 124 0 44 1 87 1 124 1 51 2 103 15 157 16 62 47 111 92 148 47 39 106 61 171 65 70 4 143 6 221 6 79 0 151-2 221-6 65-4 124-26 171-65 45-37 76-86 92-148 13-54 14-106 15-157 0-37 1-80 1-124v0c0-44-1-87-1-124-1-51-2-103-15-157-16-61-47-111-92-148-47-39-106-61-171-65-67-4-136-6-211-6z m-10 78c77 0 148 2 217 6 48 3 91 19 125 47 33 26 55 62 66 107 11 45 12 93 13 139 0 37 1 79 1 123 0 44-1 87-1 123-1 46-2 94-13 139-11 45-33 81-66 107-34 28-77 44-125 47-69 4-140 6-217 6-77 0-148-2-217-6-48-3-91-19-125-47-32-26-55-62-66-107-11-45-12-93-13-139 0-36-1-79-1-123 0-43 1-86 1-123 1-46 2-94 13-139 11-45 34-81 66-107 34-28 77-44 125-47 69-4 140-6 217-6z m-2 178c-135 0-244 109-244 244s109 244 244 244c135 0 244-109 244-244s-109-244-244-244z m0 410c-91 0-166-74-166-166s75-166 166-166c92 0 166 75 166 166s-74 166-166 166z m272 156c-33 0-59-26-59-58s26-59 59-59c32 0 58 26 58 59s-26 58-58 58z m0 0" horiz-adv-x="1000" />

<glyph glyph-name="grid" unicode="&#xe80a;" d="M224 850h-149c-41 0-75-34-75-75v-149c0-41 34-75 75-75h149c41 0 75 34 75 75v149c0 41-34 75-75 75z m24-224c0-13-11-24-24-24h-149c-13 0-24 11-24 24v149c0 13 11 24 24 24h149c13 0 24-11 24-24v-149z m325 224h-147c-42 0-76-34-76-76v-147c0-42 34-76 76-76h147c41 0 76 34 76 76v147c0 42-35 76-76 76z m25-223c0-14-12-25-25-25h-147c-14 0-26 11-26 25v147c0 14 12 25 26 25h147c13 0 25-11 25-25v-147z m-374-127h-149c-41 0-75-33-75-75v-148c0-42 34-75 75-75h149c41 0 75 33 75 75v148c0 42-34 75-75 75z m24-223c0-14-11-25-24-25h-149c-13 0-24 11-24 25v148c0 14 11 25 24 25h149c13 0 24-11 24-25v-148z m325 223h-147c-42 0-76-34-76-76v-146c0-42 34-76 76-76h147c41 0 76 34 76 76v146c0 42-35 76-76 76z m25-222c0-14-12-26-25-26h-147c-14 0-26 12-26 26v146c0 14 12 26 26 26h147c13 0 25-12 25-26v-146z m-24 570h-149c-42 0-75-34-75-75v-149c0-41 33-75 75-75h149c41 0 75 34 75 75v149c0 41-34 75-75 75z m24-224c0-13-11-24-24-24h-149c-14 0-25 11-25 24v149c0 14 11 24 25 24h149c13 0 24-10 24-24v-149z m324 224h-147c-42 0-76-34-76-76v-147c0-42 34-76 76-76h147c42 0 76 34 76 76v147c0 42-34 76-76 76z m25-223c0-14-11-25-25-25h-147c-14 0-25 11-25 25v147c0 14 11 25 25 25h147c14 0 25-11 25-25v-147z m-373-126h-149c-42 0-75-34-75-75v-149c0-42 33-75 75-75h149c41 0 75 33 75 75v149c0 41-34 75-75 75z m24-224c0-14-11-25-24-25h-149c-14 0-25 11-25 25v149c0 13 11 24 25 24h149c13 0 24-11 24-24v-149z m324 224h-147c-42 0-76-35-76-76v-147c0-42 34-76 76-76h147c42 0 76 34 76 76v147c0 41-34 76-76 76z m25-223c0-14-11-26-25-26h-147c-14 0-25 12-25 26v147c0 13 11 25 25 25h147c14 0 25-12 25-25v-147z m-723 223h-149c-41 0-75-34-75-75v-149c0-42 34-75 75-75h149c41 0 75 33 75 75v149c0 41-34 75-75 75z m24-224c0-14-11-25-24-25h-149c-13 0-24 11-24 25v149c0 13 11 24 24 24h149c13 0 24-11 24-24v-149z m325 224h-147c-42 0-76-35-76-76v-147c0-42 34-76 76-76h147c41 0 76 34 76 76v147c0 41-35 76-76 76z m25-223c0-14-12-26-25-26h-147c-14 0-26 12-26 26v147c0 13 12 25 26 25h147c13 0 25-12 25-25v-147z m-374-127h-149c-41 0-75-34-75-75v-149c0-41 34-75 75-75h149c41 0 75 34 75 75v149c0 41-34 75-75 75z m24-224c0-13-11-24-24-24h-149c-13 0-24 11-24 24v149c0 13 11 24 24 24h149c13 0 24-11 24-24v-149z m325 224h-147c-42 0-76-34-76-76v-147c0-42 34-76 76-76h147c41 0 76 34 76 76v147c0 42-35 76-76 76z m25-223c0-14-12-25-25-25h-147c-14 0-26 11-26 25v147c0 14 12 25 26 25h147c13 0 25-11 25-25v-147z m-24 571h-149c-42 0-75-34-75-75v-149c0-42 33-75 75-75h149c41 0 75 33 75 75v149c0 41-34 75-75 75z m24-224c0-14-11-25-24-25h-149c-14 0-25 11-25 25v149c0 13 11 24 25 24h149c13 0 24-11 24-24v-149z m324 224h-147c-42 0-76-34-76-76v-147c0-42 34-76 76-76h147c42 0 76 34 76 76v147c0 42-34 76-76 76z m25-223c0-14-11-26-25-26h-147c-14 0-25 12-25 26v147c0 14 11 25 25 25h147c14 0 25-11 25-25v-147z m-373-127h-149c-42 0-75-34-75-75v-149c0-41 33-75 75-75h149c41 0 75 34 75 75v149c0 42-34 75-75 75z m24-224c0-13-11-24-24-24h-149c-14 0-25 11-25 24v149c0 14 11 24 25 24h149c13 0 24-10 24-24v-149z m324 224h-147c-42 0-76-34-76-76v-147c0-42 34-76 76-76h147c42 0 76 34 76 76v147c0 42-34 76-76 76z m25-223c0-14-11-25-25-25h-147c-14 0-25 11-25 25v147c0 14 11 25 25 25h147c14 0 25-11 25-25v-147z" horiz-adv-x="998" />

<glyph glyph-name="filter" unicode="&#xe80b;" d="M961 773h-922c-21 0-39-18-39-39 0-291 305-237 305-470v-298c0-29 31-48 57-35l312 161c13 7 21 20 21 35v137c0 243 305 174 305 470 0 21-17 39-39 39z m-344-509v-113l-234-121v234c0 266-266 236-301 431h836c-38-215-301-139-301-431z" horiz-adv-x="1000" />

<glyph glyph-name="logo" unicode="&#xe80c;" d="M724 850h-448c-152 0-276-124-276-276v-448c0-152 124-276 276-276h448c152 0 276 124 276 276v448c0 152-124 276-276 276z m187-724c0-103-84-187-187-187h-448c-103 0-187 84-187 187v448c0 103 84 187 187 187h448c103 0 187-84 187-187v-448z m-411 482c-142 0-258-116-258-258 0-142 116-258 258-258s258 116 258 258c0 142-116 258-258 258z m0-427c-93 0-169 76-169 169 0 93 76 169 169 169s169-76 169-169c0-93-76-169-169-169z m269 502c-18 0-34-7-46-19-13-12-20-29-20-46 0-17 7-34 20-46 12-12 28-19 46-19 17 0 33 7 46 19 12 12 19 29 19 46 0 17-7 34-19 46-13 12-29 19-46 19z" horiz-adv-x="1000" />

<glyph glyph-name="list" unicode="&#xe80d;" d="M924 850h-849c-41 0-75-34-75-75v-149c0-41 34-75 75-75h849c42 0 75 34 75 75v149c0 41-33 75-75 75z m25-224c0-13-11-24-25-24h-849c-13 0-24 11-24 24v149c0 13 11 24 24 24h849c14 0 25-11 25-24v-149z m-376 224h-147c-42 0-76-34-76-76v-147c0-42 34-76 76-76h147c41 0 76 34 76 76v147c0 42-35 76-76 76z m25-223c0-14-12-25-25-25h-147c-14 0-26 11-26 25v147c0 14 12 25 26 25h147c13 0 25-11 25-25v-147z m326-127h-849c-41 0-75-33-75-75v-148c0-42 34-75 75-75h849c42 0 75 33 75 75v148c0 42-33 75-75 75z m25-223c0-14-11-25-25-25h-849c-13 0-24 11-24 25v148c0 14 11 25 24 25h849c14 0 25-11 25-25v-148z m-376 223h-147c-42 0-76-34-76-76v-146c0-42 34-76 76-76h147c41 0 76 34 76 76v146c0 42-35 76-76 76z m25-222c0-14-12-26-25-26h-147c-14 0-26 12-26 26v146c0 14 12 26 26 26h147c13 0 25-12 25-26v-146z m-24 570h-149c-42 0-75-34-75-75v-149c0-41 33-75 75-75h149c41 0 75 34 75 75v149c0 41-34 75-75 75z m24-224c0-13-11-24-24-24h-149c-14 0-25 11-25 24v149c0 14 11 24 25 24h149c13 0 24-10 24-24v-149z m324 224h-147c-42 0-76-34-76-76v-147c0-42 34-76 76-76h147c42 0 76 34 76 76v147c0 42-34 76-76 76z m25-223c0-14-11-25-25-25h-147c-14 0-25 11-25 25v147c0 14 11 25 25 25h147c14 0 25-11 25-25v-147z m-373-126h-149c-42 0-75-34-75-75v-149c0-42 33-75 75-75h149c41 0 75 33 75 75v149c0 41-34 75-75 75z m24-224c0-14-11-25-24-25h-149c-14 0-25 11-25 25v149c0 13 11 24 25 24h149c13 0 24-11 24-24v-149z m324 224h-147c-42 0-76-35-76-76v-147c0-42 34-76 76-76h147c42 0 76 34 76 76v147c0 41-34 76-76 76z m25-223c0-14-11-26-25-26h-147c-14 0-25 12-25 26v147c0 13 11 25 25 25h147c14 0 25-12 25-25v-147z m-23 223h-849c-41 0-75-34-75-75v-149c0-42 34-75 75-75h849c42 0 75 33 75 75v149c0 41-33 75-75 75z m25-224c0-14-11-25-25-25h-849c-13 0-24 11-24 25v149c0 13 11 24 24 24h849c14 0 25-11 25-24v-149z m-376 224h-147c-42 0-76-35-76-76v-147c0-42 34-76 76-76h147c41 0 76 34 76 76v147c0 41-35 76-76 76z m25-223c0-14-12-26-25-26h-147c-14 0-26 12-26 26v147c0 13 12 25 26 25h147c13 0 25-12 25-25v-147z m326-127h-849c-41 0-75-34-75-75v-149c0-41 34-75 75-75h849c42 0 75 34 75 75v149c0 41-33 75-75 75z m25-224c0-13-11-24-25-24h-849c-13 0-24 11-24 24v149c0 13 11 24 24 24h849c14 0 25-11 25-24v-149z m-376 224h-147c-42 0-76-34-76-76v-147c0-42 34-76 76-76h147c41 0 76 34 76 76v147c0 42-35 76-76 76z m25-223c0-14-12-25-25-25h-147c-14 0-26 11-26 25v147c0 14 12 25 26 25h147c13 0 25-11 25-25v-147z m-24 571h-149c-42 0-75-34-75-75v-149c0-42 33-75 75-75h149c41 0 75 33 75 75v149c0 41-34 75-75 75z m24-224c0-14-11-25-24-25h-149c-14 0-25 11-25 25v149c0 13 11 24 25 24h149c13 0 24-11 24-24v-149z m324 224h-147c-42 0-76-34-76-76v-147c0-42 34-76 76-76h147c42 0 76 34 76 76v147c0 42-34 76-76 76z m25-223c0-14-11-26-25-26h-147c-14 0-25 12-25 26v147c0 14 11 25 25 25h147c14 0 25-11 25-25v-147z m-373-127h-149c-42 0-75-34-75-75v-149c0-41 33-75 75-75h149c41 0 75 34 75 75v149c0 42-34 75-75 75z m24-224c0-13-11-24-24-24h-149c-14 0-25 11-25 24v149c0 14 11 24 25 24h149c13 0 24-10 24-24v-149z m324 224h-147c-42 0-76-34-76-76v-147c0-42 34-76 76-76h147c42 0 76 34 76 76v147c0 42-34 76-76 76z m25-223c0-14-11-25-25-25h-147c-14 0-25 11-25 25v147c0 14 11 25 25 25h147c14 0 25-11 25-25v-147z" horiz-adv-x="998" />

<glyph glyph-name="down-arrow" unicode="&#xe80e;" d="M864 564l-374-374-374 374c-10 11-145-12-110-47l445-447c11-10 24-17 39-17h0c15 0 29 7 39 17l445 446c40 40-100 58-110 48z" horiz-adv-x="981" />

<glyph glyph-name="music-and-multimedia" unicode="&#xe80f;" d="M69 850l829-483-829-484z" horiz-adv-x="1000" />

<glyph glyph-name="play" unicode="&#xe810;" d="M820 443l-555 380c-26 18-52 27-73 27-42 0-67-33-67-89v-822c0-56 25-89 67-89 21 0 47 9 72 27l556 380c36 25 56 58 56 93 0 35-20 68-56 93z" horiz-adv-x="1000" />

<glyph glyph-name="question(1)" unicode="&#xe811;" d="M512 848c-276 0-500-224-500-500s224-500 500-500 500 224 500 500-224 500-500 500z m-21-833c-35 0-63 28-63 62s28 63 63 63 62-28 62-63-28-62-62-62z m62 254v-67c0-11-9-21-21-21h-83c-11 0-21 10-21 21v104c0 46 38 84 84 84s83 37 83 83-37 84-83 84-84-38-84-84v-21c0-11-9-21-21-21h-83c-11 0-21 10-21 21v21c0 115 94 208 209 208s208-93 208-208c0-100-70-185-167-204z" horiz-adv-x="1000" />

<glyph glyph-name="play-(1)" unicode="&#xe812;" d="M820 443l-555 380c-26 18-52 27-73 27-42 0-67-33-67-89v-822c0-56 25-89 67-89 21 0 47 9 72 27l556 380c36 25 56 58 56 93 0 35-20 68-56 93z" horiz-adv-x="1000" />

<glyph glyph-name="replay" unicode="&#xe813;" d="M752 850l-29-29 139-139h-590c-112 0-203-91-203-203v-126h40v126c0 90 73 163 163 163h590l-139-140 29-28 188 188-188 188z m139-503v-126c0-90-73-163-163-163h-590l139 140-29 28-188-188 188-188 29 29-139 139h590c112 0 203 91 203 203v126h-40z" horiz-adv-x="1000" />

<glyph glyph-name="send" unicode="&#xe814;" d="M999 817c0 0 0 0 0 0 0 3-2 7-3 10-1 1-1 1-1 2-2 3-4 6-7 9s-6 5-9 7c-1 0-1 0-2 1-3 1-7 3-10 3 0 0 0 0 0 0-4 1-7 1-11 1-1 0-2 0-2 0-4-1-8-1-11-3l-917-375c-16-7-27-23-26-41 1-17 13-32 30-37l395-119 119-395c5-17 20-29 37-30 1 0 2 0 2 0 17 0 33 10 39 26l375 917c0 0 0 0 0 0 2 3 2 7 3 10 0 1 0 2 0 3 0 4 0 7-1 11z m-832-377l616 252-336-336-280 84z m423-423l-84 280 336 336-252-616z m-227 196c-16 16-43 16-59 0l-104-104c-16-17-16-43 0-59 8-8 19-12 29-12s22 4 30 12l104 104c16 16 16 43 0 59z m-229 0c-17 16-43 16-59 0l-63-63c-16-16-16-42 0-59 8-8 19-12 30-12s21 4 29 12l63 63c16 16 16 43 0 59z m229-229c-16 16-43 16-59 0l-63-63c-16-16-16-43 0-59 9-8 19-12 30-12s21 4 29 12l63 63c16 16 16 42 0 59z" horiz-adv-x="1000" />

<glyph glyph-name="search(2)" unicode="&#xe815;" d="M440 850c-242 0-440-198-440-440 0-243 198-441 440-441 243 0 441 198 441 441 0 242-198 440-441 440z m0-799c-198 0-359 161-359 359s161 359 359 359 360-161 360-359-162-359-360-359z m548-132l-233 234c-16 15-42 15-57 0-16-16-16-42 0-58l233-233c8-8 18-12 28-12 11 0 21 4 29 12 16 16 16 41 0 57z" horiz-adv-x="1000" />

<glyph glyph-name="smartphone(1)" unicode="&#xe816;" d="M500-6c-21 0-38-17-38-38s17-39 38-39 39 17 39 39c0 21-18 38-39 38z m158 856h-316c-82 0-150-67-150-150v-4-654-42c0-83 68-150 150-150h316c82 0 150 67 150 150v42 654 4c0 83-68 150-150 150z m-426-134c0 1 0 2 0 3 1 1 1 2 1 3 0 1 0 1 0 2 1 1 1 2 1 3 0 1 0 2 1 2 0 1 0 2 0 3 1 1 1 1 1 2 0 1 1 2 1 3 0 1 0 2 1 2 0 1 1 2 1 3 0 1 1 2 1 2 0 1 1 2 1 3 0 1 1 1 1 2 0 1 1 2 2 4 0 0 0 0 0 1 1 1 2 3 3 4 0 1 0 1 1 1 0 1 1 2 2 4 0 0 0 1 1 1 0 1 1 2 2 3 0 0 1 1 1 1 1 1 1 2 2 3 0 0 1 1 1 1 1 1 2 2 2 3 1 0 1 1 2 1 0 1 1 2 2 2 0 1 1 1 1 2 1 1 2 1 2 2 1 0 1 1 2 1 1 1 2 2 2 2 1 1 2 1 2 2 1 0 1 1 2 2 1 0 1 1 2 1 1 0 2 1 3 2 0 0 1 1 1 1 1 1 3 1 4 2 0 0 0 0 0 1 2 1 3 1 5 2 0 0 1 0 1 1 1 0 2 1 4 2 0 0 1 0 1 0 1 1 2 1 3 2 1 0 2 0 2 1 1 0 2 0 3 1 1 0 2 0 2 1 1 0 2 0 3 0 1 1 2 1 2 1 1 0 2 1 3 1 1 0 2 0 2 0 1 1 2 1 3 1 1 0 2 1 3 1 1 0 2 0 3 0 1 0 1 0 2 1 1 0 2 0 3 0 1 0 2 0 2 0 2 0 3 0 4 0 1 0 1 0 2 1 2 0 4 0 5 0h316c2 0 4 0 5 0 1 0 2 0 2-1 1 0 2 0 4 0 1 0 1 0 2 0 1 0 2 0 3 0 1-1 2-1 2-1 1 0 2 0 4 0 0-1 1-1 2-1 1 0 2 0 3-1 1 0 1 0 2 0 1 0 2-1 3-1 1 0 1 0 2-1 1 0 2 0 3 0 1-1 1-1 2-1 1-1 2-1 3-1 1-1 1-1 2-1 1-1 2-1 3-2 1 0 1 0 2 0 1-1 2-2 3-2 0 0 1-1 1-1 2-1 3-2 5-2 0-1 0-1 0-1 2-1 3-1 4-2 1-1 1-1 2-1 1-1 1-2 2-2 1 0 1-1 2-1 1-1 1-1 2-2 1-1 2-1 2-2 1 0 1-1 2-2 1 0 1-1 2-1 1-1 1-1 2-2 1-1 1-1 2-2 0 0 1-1 2-2 0 0 0-1 1-1 1-1 1-2 2-3 0 0 1-1 1-1 1-1 2-2 2-3 1 0 1-1 2-1 0-1 1-2 1-3 1 0 1-1 2-1 0-1 1-3 2-4 0 0 0-1 1-1 1-1 1-3 2-4 0-1 0-1 1-1 0-1 1-3 2-4 0-1 0-1 0-2 1-1 1-2 2-3 0 0 0-1 1-2 0-1 0-2 1-3 0 0 0-1 1-2 0-1 0-2 1-3 0-1 0-1 0-2 0-1 1-2 1-3 0-1 0-1 0-2 1-1 1-2 1-3 0-1 0-1 0-2 1-1 1-2 1-3 0-1 0-2 0-3 0 0 0 0 1-1h-537c0 1 0 1 0 1z m537-716c0-62-50-112-111-112h-316c-61 0-111 50-111 112v23h538l0-23 0 0z m0 639h-76c-11 0-19-9-19-20s8-19 19-19h76v-538h-538v38h77c10 0 19 9 19 19 0 11-9 19-19 19h-77v539h538v-38z m-77 128c0 1-1 3-1 4-1 1-1 2-2 3-1 1-1 2-2 3-1 1-2 2-3 2-1 1-2 2-3 2-2 0-3 1-4 1-3 1-5 1-7 0-2 0-3 0-4-1-1 0-2-1-3-2-1 0-2-1-3-2-1-1-2-2-3-3-1-1-1-2-1-3-1-1-1-3-2-4 0-1 0-2 0-3s0-3 0-4c1-1 1-3 2-4 0-1 0-2 1-3 1-1 2-2 3-3 1-1 2-2 3-2 1-1 2-2 3-2 1 0 2-1 4-1 1 0 2-1 3-1 1 0 3 1 4 1 1 0 3 0 4 1 1 0 2 1 3 2 1 0 2 1 3 2 1 1 2 2 2 3 1 1 1 2 2 3 0 1 1 3 1 4 0 1 0 2 0 4s0 2 0 3z m-308-644c0 1 0 3-1 4 0 1-1 2-2 3 0 1-1 2-2 3-1 1-2 2-3 2-1 1-2 2-3 2-1 0-3 1-4 1-2 1-5 1-7 0-1 0-3 0-4-1-1 0-2-1-3-2-1-1-2-1-3-2s-2-2-3-3c0-1-1-2-1-3-1-2-1-3-1-4-1-1-1-2-1-4s0-2 1-3c0-1 0-3 1-4 0-1 1-2 1-3 1-1 2-2 3-3 1-1 2-2 3-2 1-1 2-2 3-2 1-1 2-1 4-1 1-1 2-1 3-1 2 0 3 0 4 1 1 0 3 0 4 1 1 0 2 1 3 2 1 0 2 1 3 2 1 1 2 2 2 3 1 1 2 2 2 3 0 1 1 3 1 4 0 1 1 2 1 3s0 3-1 4z m270 500c-1 1-1 3-2 4 0 1-1 2-1 3-1 1-2 2-3 3-1 1-2 2-3 2-1 1-2 2-3 2-1 0-2 1-3 1-3 1-6 1-8 0-1 0-2 0-4-1-1 0-2-1-3-2-1-1-2-1-3-2-1-1-2-2-2-3-1-1-2-2-2-3 0-2-1-3-1-4 0-1-1-2-1-4s1-2 1-3c0-1 0-3 1-4 0-1 1-2 2-3 1-1 1-2 2-3s2-2 3-2c1-1 2-2 3-2 2-1 3-1 4-1s3-1 4-1c5 0 10 2 13 6 4 3 6 9 6 14 0 1 0 2 0 3z" horiz-adv-x="1000" />

<glyph glyph-name="search" unicode="&#xe817;" d="M276 622c-14 15-38 15-52 0-54-53-80-128-72-204 2-19 18-33 36-33 2 0 3 0 4 0 20 2 35 20 33 40-5 55 13 107 51 145 15 15 15 38 0 52z m146 228c-232 0-422-189-422-422s190-423 422-423 423 190 423 423-190 422-423 422z m0-771c-192 0-348 156-348 349s156 348 348 348c193 0 349-156 349-348s-156-349-349-349z m567-166l-268 269c-15 14-38 14-52 0-15-15-15-38 0-53l268-268c7-7 17-11 26-11 10 0 19 4 26 11 15 14 15 38 0 52z" horiz-adv-x="1000" />

<glyph glyph-name="send2" unicode="&#xe818;" d="M341 259h-182c-13 0-23-9-23-23s10-22 23-22h182c14 0 23 9 23 22s-9 23-23 23z m-68 114h-182c-14 0-23-9-23-23s9-23 23-23h182c13 0 23 9 23 23s-10 23-23 23z m-68 113h-182c-14 0-23-9-23-22s9-23 23-23h182c13 0 22 9 22 23s-9 22-22 22z m700 60c-7 9-23 11-32 4l-241-184c-25-18-59-18-84 0l-241 184c-9 7-25 7-32-4-7-10-7-25 5-32l243-184c20-16 45-23 68-23s50 7 68 23l241 184c9 7 11 22 5 32z m27 100h-727c-14 0-23-10-23-23s9-23 23-23h727c14 0 23-9 23-23v-454c0-14-9-23-23-23h-727c-14 0-23-9-23-23 0-13 9-22 23-22h727c39 0 68 29 68 68v454c0 39-29 69-68 69z m-30-462l-136 137c-9 9-23 9-32 0s-9-23 0-32l137-137c4-4 11-6 15-6s12 2 16 6c9 9 9 23 0 32z" horiz-adv-x="1000" />

<glyph glyph-name="telegram" unicode="&#xe819;" d="M985 827c-13 15-31 23-52 23-11 0-23-2-36-7l-846-323c-45-17-51-43-51-57s8-39 54-54c0 0 0 0 1 0l175-50 95-272c13-37 42-60 76-60 21 0 42 9 61 26l108 100 158-127c0 0 0 0 0 0l1-1c1 0 1 0 1 0 17-14 36-21 55-21h0c37 0 66 27 74 69l139 685c5 27 1 52-13 69z m-696-459l339 173-211-224c-4-3-6-8-7-13l-41-164z m133-272c-1-1-3-2-4-3l38 153 68-56z m518 673l-138-685c-2-6-6-21-17-21-5 0-12 3-19 8l-179 144c0 0 0 0 0 0l-106 85 305 324c10 11 11 27 2 38-8 11-24 15-37 9l-501-257-178 51 846 323c7 3 12 3 15 3 2 0 5 0 6-1 2-2 4-9 1-21z m0 0" horiz-adv-x="1000" />

<glyph glyph-name="speech-bubble" unicode="&#xe81a;" d="M145-89h-70l50 50c27 27 43 63 48 101-115 75-173 185-173 300 0 213 195 428 501 428 324 0 497-198 497-409 0-212-175-411-497-411-57 0-115 8-168 21-50-51-117-80-188-80z" horiz-adv-x="1000" />

<glyph glyph-name="user(2)" unicode="&#xe81b;" d="M411 368c66 0 123 24 170 71 47 47 71 104 71 170 0 66-24 124-71 171-47 46-104 70-170 70-66 0-124-24-170-71s-71-104-71-170c0-66 24-123 71-170 46-47 104-71 170-71z m-129 370c36 36 78 53 129 53 51 0 93-17 129-53 36-36 53-78 53-129 0-51-17-93-53-129-36-36-78-53-129-53-51 0-93 17-129 53-36 36-53 78-53 129 0 51 17 93 53 129z m0 0m550-657c-1 20-4 41-8 63-4 23-9 44-15 64-7 20-16 40-26 59-12 20-25 37-40 51-15 15-34 27-56 36-22 9-47 13-73 13-10 0-20-4-39-17-11-7-25-16-41-26-13-8-30-16-52-23-22-7-43-11-65-11-21 0-43 4-64 11-22 7-40 15-53 23-15 10-29 19-41 26-19 13-29 17-39 17-26 0-50-4-72-13-22-9-41-21-57-36-15-14-28-31-39-51-11-19-20-39-26-59-7-20-12-41-16-64-4-22-7-43-8-63-1-19-2-39-2-59 0-52 17-95 49-126 33-30 75-46 127-46h482c52 0 95 16 127 46 33 31 49 74 49 126 0 20 0 40-2 59z m-87-142c-22-21-50-30-87-30h-482c-37 0-65 9-86 30-21 20-31 47-31 83 0 19 0 37 2 55 1 17 3 37 7 57 3 20 8 39 13 56 6 16 13 33 22 48 8 15 18 28 29 38 10 10 22 18 37 23 14 6 30 9 46 9 3-1 6-3 12-7 12-8 26-16 41-26 18-11 40-21 67-30 27-9 55-13 82-13 28 0 56 4 83 13 26 9 49 19 66 30 16 10 29 18 41 26 6 4 10 6 12 7 17 0 32-3 46-9 15-5 28-13 38-23 10-10 20-23 29-38 8-15 16-32 21-48 5-17 10-36 14-56 3-20 6-40 7-57v0c1-18 2-36 2-55 0-36-10-63-31-83z m0 0" horiz-adv-x="1000" />

<glyph glyph-name="tick" unicode="&#xe81c;" d="M971 713c-14 15-38 15-53 0l-452-451-163 178c-14 15-38 16-53 2-16-14-17-38-3-53l190-206c7-8 17-12 27-13 0 0 1 0 1 0 10 0 19 4 26 11l480 479c15 15 15 39 0 53z m-9-325c-20 0-37-17-37-38 0-234-191-425-425-425-234 0-425 191-425 425 0 234 191 425 425 425 21 0 38 17 38 37 0 21-17 38-38 38-276 0-500-224-500-500 0-276 224-500 500-500 276 0 500 224 500 500 0 21-17 38-38 38z" horiz-adv-x="1000" />

<glyph glyph-name="window" unicode="&#xe81d;" d="M969 850h-938c-17 0-31-14-31-31v-938c0-17 14-31 31-31h938c17 0 31 14 31 31v938c0 17-14 31-31 31z m-31-938h-875v876h875v-876z m-94 813h-688c-17 0-31-14-31-31v-688c0-17 14-31 31-31h688c17 0 31 14 31 31v688c0 17-14 31-31 31z m-375-687h-281v281h281v-281z m0 343h-281v282h281v-282z m344-343h-282v281h282v-281z m0 343h-282v282h282v-282z" horiz-adv-x="1000" />
</font>
</defs>
</svg>
